<svg id="Capa_1" data-name="Capa 1" xmlns="http://www.w3.org/2000/svg" xmlns:xlink="http://www.w3.org/1999/xlink" viewBox="95.72 440.78 888.57 198.42">
  <defs>
    <style>
      .cls-1 {
        fill: url(#Degradado_sin_nombre_64-2);
      }

      .cls-2 {
        fill: #fbaf3a;
      }

      .cls-3 {
        fill: url(#Degradado_sin_nombre_64);
      }
    </style>
    <linearGradient id="Degradado_sin_nombre_64" data-name="Degradado sin nombre 64" x1="1295.65" y1="114.01" x2="1295.65" y2="141.87" gradientTransform="translate(-822.5 -115.36) rotate(25.11)" gradientUnits="userSpaceOnUse">
      <stop offset="0" stop-color="#000" stop-opacity=".3"/>
      <stop offset=".59" stop-color="#000" stop-opacity="0"/>
    </linearGradient>
    <linearGradient id="Degradado_sin_nombre_64-2" data-name="Degradado sin nombre 64" x1="1833.87" y1="-1035.99" x2="1833.87" y2="-1007.33" gradientTransform="translate(-852.77 -1278.09) rotate(88.23) scale(1.05 1.02)" xlink:href="#Degradado_sin_nombre_64"/>
  </defs>
  <g>
    <g>
      <path class="cls-2" d="m411.18,611.91c0-1.33-.47-2.35-1.4-3.07-.93-.72-2.62-1.44-5.05-2.18-2.43-.73-4.37-1.55-5.81-2.45-2.75-1.73-4.13-3.98-4.13-6.76,0-2.43.99-4.44,2.98-6.01,1.98-1.58,4.56-2.36,7.73-2.36,2.1,0,3.97.39,5.62,1.16,1.65.78,2.94,1.88,3.88,3.31.94,1.43,1.41,3.02,1.41,4.76h-5.23c0-1.58-.49-2.81-1.48-3.7-.99-.89-2.4-1.34-4.24-1.34-1.72,0-3.05.37-3.99,1.1-.95.73-1.42,1.76-1.42,3.07,0,1.11.51,2.03,1.53,2.77s2.71,1.46,5.06,2.16c2.35.7,4.24,1.49,5.66,2.38,1.42.89,2.47,1.91,3.13,3.07.66,1.15.99,2.51.99,4.05,0,2.52-.96,4.52-2.89,6-1.93,1.49-4.54,2.23-7.85,2.23-2.18,0-4.19-.4-6.03-1.21-1.83-.81-3.26-1.92-4.27-3.35-1.02-1.42-1.52-3.08-1.52-4.98h5.25c0,1.71.57,3.04,1.7,3.98,1.13.94,2.76,1.41,4.87,1.41,1.82,0,3.2-.37,4.12-1.11.92-.74,1.38-1.72,1.38-2.93Z"/>
      <path class="cls-2" d="m453.63,605.38c0,2.96-.51,5.56-1.54,7.79-1.02,2.23-2.49,3.95-4.39,5.14-1.9,1.2-4.09,1.79-6.56,1.79s-4.63-.6-6.54-1.79c-1.92-1.19-3.39-2.9-4.44-5.11-1.04-2.21-1.57-4.76-1.59-7.65v-1.7c0-2.95.52-5.54,1.56-7.8,1.04-2.25,2.52-3.98,4.42-5.17,1.9-1.2,4.08-1.79,6.54-1.79s4.64.59,6.54,1.77,3.37,2.88,4.41,5.1c1.04,2.22,1.56,4.8,1.58,7.74v1.68Zm-5.25-1.58c0-3.35-.63-5.91-1.9-7.69-1.27-1.78-3.06-2.67-5.38-2.67s-4.04.89-5.32,2.66c-1.28,1.78-1.93,4.29-1.96,7.54v1.74c0,3.32.65,5.88,1.94,7.69,1.29,1.81,3.09,2.72,5.38,2.72s4.11-.88,5.36-2.65c1.25-1.77,1.88-4.36,1.88-7.76v-1.58Z"/>
      <path class="cls-2" d="m484.74,606.9h-12.15v12.8h-5.25v-30.19h19.18v4.23h-13.94v8.98h12.15v4.19Z"/>
      <path class="cls-2" d="m521.4,593.73h-9.42v25.96h-5.21v-25.96h-9.33v-4.23h23.95v4.23Z"/>
      <path class="cls-2" d="m557.85,612.23l4.65-22.73h5.2l-6.97,30.19h-5.02l-5.74-22.04-5.87,22.04h-5.04l-6.96-30.19h5.2l4.69,22.69,5.77-22.69h4.4l5.7,22.73Z"/>
      <path class="cls-2" d="m596.04,612.66h-11.7l-2.45,7.03h-5.45l11.41-30.19h4.71l11.43,30.19h-5.48l-2.47-7.03Zm-10.22-4.23h8.75l-4.37-12.52-4.37,12.52Z"/>
      <path class="cls-2" d="m626.99,608.08h-5.85v11.61h-5.25v-30.19h10.62c3.48,0,6.17.78,8.07,2.34,1.89,1.56,2.84,3.83,2.84,6.79,0,2.02-.49,3.71-1.46,5.08-.98,1.36-2.33,2.41-4.08,3.14l6.78,12.57v.27h-5.62l-6.05-11.61Zm-5.85-4.23h5.39c1.77,0,3.15-.45,4.15-1.34.99-.89,1.49-2.11,1.49-3.66s-.46-2.87-1.38-3.75c-.92-.88-2.29-1.34-4.12-1.37h-5.54v10.12Z"/>
      <path class="cls-2" d="m668.54,606.21h-12.4v9.29h14.5v4.19h-19.74v-30.19h19.6v4.23h-14.35v8.34h12.4v4.15Z"/>
    </g>
    <g>
      <g>
        <path class="cls-2" d="m457.59,459.89h22.17v35.66c3.1-3.51,6.82-6.2,11.16-8.06,4.34-1.86,9.09-2.79,14.26-2.79,10.64,0,18.66,3.18,24.03,9.53,5.37,6.36,8.06,15.22,8.06,26.59v47.6h-22.17v-45.12c0-5.89-1.4-10.39-4.19-13.49-2.79-3.1-6.77-4.65-11.94-4.65-5.89,0-10.57,1.65-14.03,4.96-3.46,3.31-5.19,7.86-5.19,13.64v44.65h-22.17v-108.53Z"/>
        <path class="cls-2" d="m569.53,564.62c-6.72-3.67-11.96-8.76-15.74-15.27-3.77-6.51-5.66-13.85-5.66-22.02s1.89-15.5,5.66-22.02c3.77-6.51,9.02-11.6,15.74-15.27,6.72-3.67,14.26-5.5,22.64-5.5s15.92,1.84,22.64,5.5c6.72,3.67,11.96,8.76,15.74,15.27,3.77,6.51,5.66,13.85,5.66,22.02s-1.89,15.5-5.66,22.02c-3.77,6.51-9.02,11.6-15.74,15.27-6.72,3.67-14.26,5.5-22.64,5.5s-15.92-1.83-22.64-5.5Zm7.21-21.55c4.08,4.19,9.23,6.28,15.43,6.28s11.34-2.09,15.43-6.28c4.08-4.19,6.12-9.43,6.12-15.74s-2.04-11.55-6.12-15.74c-4.08-4.19-9.23-6.28-15.43-6.28s-11.34,2.09-15.43,6.28c-4.08,4.19-6.12,9.43-6.12,15.74s2.04,11.55,6.12,15.74Z"/>
        <path class="cls-2" d="m648.45,486.25h20.62l.78,9.15c2.79-3.41,6.1-5.99,9.92-7.75,3.82-1.76,8.01-2.64,12.56-2.64,3,0,6.15.41,9.46,1.24v20.47c-3.93-.72-7.08-1.09-9.46-1.09-6.72,0-12.02,1.89-15.89,5.66-3.88,3.77-5.81,9.02-5.81,15.74v41.4h-22.17v-82.17Z"/>
        <path class="cls-2" d="m723.41,564.47c-6.25-3.77-11.09-8.91-14.5-15.43-3.41-6.51-5.12-13.75-5.12-21.71s1.76-15.5,5.27-22.02c3.51-6.51,8.4-11.6,14.65-15.27,6.25-3.67,13.31-5.5,21.16-5.5,5.17,0,10.05.85,14.65,2.56,4.6,1.71,8.66,4.16,12.17,7.36l.78-8.22h19.23v107.29h-22.17v-31.63c-7.13,5.48-15.4,8.22-24.81,8.22-7.96,0-15.07-1.89-21.32-5.66Zm8.84-21.32c4.08,4.14,9.28,6.2,15.58,6.2s11.65-2.07,15.74-6.2c4.08-4.13,6.12-9.4,6.12-15.81s-2.04-11.68-6.12-15.81c-4.08-4.13-9.33-6.2-15.74-6.2s-11.5,2.07-15.58,6.2c-4.08,4.14-6.12,9.41-6.12,15.81s2.04,11.68,6.12,15.81Z"/>
        <path class="cls-2" d="m816.51,560.67c-5.48-6.2-8.22-15.14-8.22-26.82v-47.6h22.17v44.96c0,5.89,1.34,10.41,4.03,13.57,2.69,3.15,6.51,4.73,11.47,4.73,5.79,0,10.41-1.71,13.88-5.12,3.46-3.41,5.19-7.96,5.19-13.64v-44.5h22.17v82.17h-20.93l-.62-9.61c-3.2,3.62-7,6.38-11.4,8.29-4.39,1.91-9.23,2.87-14.5,2.87-10.03,0-17.78-3.1-23.26-9.3Z"/>
        <path class="cls-2" d="m919.07,564.62c-6.56-3.67-11.71-8.76-15.43-15.27-3.72-6.51-5.58-13.85-5.58-22.02s1.86-15.5,5.58-22.02c3.72-6.51,8.86-11.6,15.43-15.27,6.56-3.67,13.98-5.5,22.25-5.5s15.81,1.84,22.33,5.5c6.51,3.67,11.58,8.74,15.19,15.19,3.62,6.46,5.43,13.82,5.43,22.09,0,2.38-.15,4.81-.46,7.29h-63.1c1.24,4.86,3.67,8.63,7.29,11.32,3.62,2.69,8.06,4.03,13.33,4.03,3.51,0,6.74-.64,9.69-1.94,2.95-1.29,5.24-3.02,6.9-5.19h24.03c-2.9,8.37-8.01,15.01-15.35,19.92-7.34,4.91-15.76,7.36-25.27,7.36-8.27,0-15.69-1.83-22.25-5.5Zm43.02-45.04c-1.24-4.65-3.67-8.29-7.29-10.93-3.62-2.64-8.12-3.95-13.49-3.95s-9.53,1.32-13.1,3.95c-3.57,2.64-6.02,6.28-7.36,10.93h41.24Z"/>
      </g>
      <g>
        <path class="cls-2" d="m368.48,460.35h47.45v1.23s-14.47,5.83-23.01,22.62h-24.49s0-23.85.05-23.85Z"/>
        <path class="cls-2" d="m414.26,470.27c-19.06,13.93-18.96,37.23-18.96,37.23v47.5h0v14.59h23.9v-14.59h0v-50.37c2.77-18.96,23.55-20.84,23.55-20.84v-23.21c-17.53.1-28.49,9.68-28.49,9.68Z"/>
      </g>
    </g>
  </g>
  <g>
    <g>
      <path class="cls-2" d="m162.27,621.67c.06.08,10.75,15.34,33.12,17.38.54.05,1.08.1,1.64.13h0s.04-.06.09-.14c.14-.22.47-.71.98-1.41,3.36-4.62,14.57-18.15,31.68-19.91.33-.03.65-.06.97-.08.32-.02.65-.05.98-.06,20.75-.85,35.43,16.54,35.47,16.58l-.02.02s19.67-2.14,31.93-22.3h0c-16.97-24.02-40.67-29.9-40.67-29.9-10.84-3.72-21.22-4.47-30.5-3.66-8.82.5-18.42,2.55-28.1,7.21-.52.25-1.05.48-1.57.75,0,0-22.63,9.19-36.01,35.37h0Z"/>
      <path class="cls-2" d="m298.23,571.76c9.66-18.38,32.06-22.38,32.11-22.39v.03s8-18.1-3.3-38.81h0c-29.28,2.65-46.24,20.22-46.24,20.22-8.65,7.52-14.5,16.13-18.45,24.56-4.21,8.31-7.38,18.22-7.97,29.67,0,0-3.38,24.19,12.58,48.88h0c.1-.01,19.57-1.69,32.57-21.31h0s-10.69-20.13-2.17-39.09c.14-.3.28-.59.42-.88.14-.29.28-.58.43-.88Z"/>
      <path class="cls-2" d="m289.8,493.94c-12.21-16.8-5.88-38.66-5.87-38.71h.02s-12.69-15.17-36.26-14.21h0c-10.58,27.43-2.33,50.42-2.33,50.42,2.92,11.09,8.05,20.14,13.86,27.41,5.59,7.45,13.07,14.68,23.08,20.28,0,0,20.19,13.73,49.4,10.35h0c.04-.1,7.15-18.31-4.69-38.65h0s-22.79.68-36.01-15.36c-.21-.25-.41-.51-.6-.77-.2-.26-.4-.51-.59-.78Z"/>
      <path class="cls-3" d="m276.11,535.33s20.93,16.95,52.06,14.56c0,0-12.33,2.26-23.35,12.9l-40.25-11.95s1.8-3.68,4.75-7.5c2.55-3.3,4.64-5.94,6.79-8.02Z"/>
      <path class="cls-1" d="m254.72,580.83s-4.55,26.19,12.33,53.17c0,0-9.5-11.44-24.32-15.2l-6.74-40.41s4.06-.04,9.23.6c4.24.52,6.41,1,9.5,1.84Z"/>
    </g>
    <g>
      <path class="cls-2" d="m184.93,443.13v-2.32h-89.1c-.09,0-.09,44.78-.09,44.78h45.99c16.04-31.52,43.2-42.46,43.2-42.46Z"/>
      <path class="cls-2" d="m232.33,441.28c-32.68.33-53.1,18.16-53.1,18.16-13.91,10.16-24.3,24.85-30.13,41-3.38,9.37-4.98,19.3-5.52,29.21-.53,9.83-.49,19.77-.45,29.61.07,18.22,1.51,36.7,7.24,54.11.19.57.29.89.28.88,13.38-26.18,36.01-35.37,36.01-35.37.52-.27,1.05-.5,1.57-.75.09-.04.18-.08.27-.12,0-12.3-.8-24.58-.63-36.88.15-11.33.21-23.48,6.33-33.47,3.91-6.39,9.57-11.66,16.08-15.33,1.54-.87,17.99-7.6,18.15-6.79-1.73-8.62-3.36-25.39,3.91-44.26Z"/>
    </g>
  </g>
</svg>